<?xml version="1.0" encoding="UTF-8" standalone="no"?>
<!DOCTYPE svg PUBLIC "-//W3C//DTD SVG 1.1//EN" "http://www.w3.org/Graphics/SVG/1.1/DTD/svg11.dtd">
<svg width="100%" height="100%" viewBox="0 0 24 24" version="1.1" xmlns="http://www.w3.org/2000/svg" xmlns:xlink="http://www.w3.org/1999/xlink" xml:space="preserve" xmlns:serif="http://www.serif.com/" style="fill-rule:evenodd;clip-rule:evenodd;stroke-linejoin:round;stroke-miterlimit:2;">
    <g transform="matrix(0.0510638,0,0,0.0510638,-1.07234,-1.07234)">
        <path d="M256,21C126.426,21 21,126.426 21,256C21,385.574 126.426,491 256,491C385.574,491 491,385.574 491,256C491,126.426 385.574,21 256,21ZM256,57C366.118,57 455,145.882 455,256C455,366.118 366.118,455 256,455C145.882,455 57,366.118 57,256C57,145.882 145.882,57 256,57ZM248.648,93.744C240.421,93.744 233.331,96.72 227.378,102.672C221.602,108.624 218.713,115.627 218.713,123.68C218.713,131.907 221.603,138.91 227.379,144.686C233.329,150.462 240.419,153.352 248.647,153.352C256.875,153.352 263.877,150.462 269.653,144.686C275.43,138.909 278.319,131.906 278.319,123.68C278.319,115.627 275.343,108.624 269.392,102.672C263.615,96.72 256.7,93.744 248.647,93.744L248.648,93.744ZM185.891,176.197L185.891,204.293L232.106,204.293L232.106,390.423L185.89,390.423L185.89,418.256L326.11,418.256L326.11,390.422L280.42,390.422L280.42,176.197L185.89,176.197L185.891,176.197Z" style="fill:white;fill-rule:nonzero;"/>
    </g>
</svg>
