<?xml version="1.0" encoding="UTF-8" standalone="no"?>
<!DOCTYPE svg PUBLIC "-//W3C//DTD SVG 1.1//EN" "http://www.w3.org/Graphics/SVG/1.1/DTD/svg11.dtd">
<svg width="100%" height="100%" viewBox="0 0 24 24" version="1.1" xmlns="http://www.w3.org/2000/svg" xmlns:xlink="http://www.w3.org/1999/xlink" xml:space="preserve" xmlns:serif="http://www.serif.com/" style="fill-rule:evenodd;clip-rule:evenodd;stroke-linejoin:round;stroke-miterlimit:2;">
    <g transform="matrix(0.0510379,0,0,0.0508409,-0.880404,-1.16776)">
        <path d="M180.75,22.97L163.03,28.938L188.375,104.344L206.095,98.314L180.75,22.969L180.75,22.97ZM254.656,101.53L149.97,137.157L160.125,167.032C168.441,157.282 177.905,149.534 188.25,143.658C195.482,171.152 204.916,197.778 216.063,223.564C229.063,218.004 242.486,213.367 255.969,209.846C249.002,183.119 240.147,156.659 229.624,130.533C240.919,129.293 252.724,129.623 264.844,131.473L254.654,101.533L254.656,101.53ZM446.344,189.75C426.88,189.647 404.064,199.593 385.469,218.188C379.691,223.964 374.785,230.166 370.719,236.531C341.985,219.218 300.953,218.268 260.499,228.563C260.479,228.47 260.459,228.376 260.436,228.283C248.079,231.417 235.71,235.531 223.749,240.595L223.937,241.001C136.609,278.507 72.035,364.991 175.905,443.064L46.03,443.064L17.25,495.03L297.125,495.03L200.845,382.656C227.259,353.589 274.255,335.072 306.405,333.594C321.42,382.674 345.85,457.11 384.47,495L450.72,495C403.84,444.336 367.402,376.266 361.53,299.25C363.29,302.773 365.552,306.02 368.375,308.844C388.687,329.156 429.281,321.501 459.031,291.75C488.783,262 496.438,221.406 476.126,201.094C468.509,193.477 458.023,189.812 446.346,189.75L446.344,189.75Z" style="fill:white;fill-rule:nonzero;"/>
    </g>
</svg>
