<?xml version="1.0" encoding="UTF-8" standalone="no"?>
<!DOCTYPE svg PUBLIC "-//W3C//DTD SVG 1.1//EN" "http://www.w3.org/Graphics/SVG/1.1/DTD/svg11.dtd">
<svg width="100%" height="100%" viewBox="0 0 24 24" version="1.1" xmlns="http://www.w3.org/2000/svg" xmlns:xlink="http://www.w3.org/1999/xlink" xml:space="preserve" xmlns:serif="http://www.serif.com/" style="fill-rule:evenodd;clip-rule:evenodd;stroke-linejoin:round;stroke-miterlimit:2;">
    <g transform="matrix(0.0626326,0,0,0.0511134,-4.28902,-1.1131)">
        <path d="M227.227,21.777C225.382,21.777 223.523,21.827 221.66,21.934C206.346,22.809 190.9,27.239 182.166,32.797L182.158,105.947C185.042,105.853 187.935,105.8 190.834,105.805C214.216,105.841 237.938,109.091 259.304,115.318L259.314,27.811C252.28,24.293 240.136,21.781 227.227,21.778L227.227,21.777ZM307.967,30.937C296.042,31.087 284.89,33.301 278,36.533L277.992,114.135L277.992,121.793C316.478,137.463 342.806,164.273 336.727,200.557L335.767,206.287L330.205,207.961C312.755,213.214 295.333,217.664 277.98,221.296L277.98,246.53C303.542,245.826 329.307,243.843 355.125,240.432L355.145,42.504C346.861,36.941 331.637,32.261 316.303,31.176C313.511,30.978 310.719,30.903 307.967,30.938L307.967,30.937ZM143.223,46.294C142.047,46.279 140.849,46.284 139.635,46.314C135.46,46.414 131.102,46.782 126.732,47.466C111.062,49.92 95.255,56.031 86.326,62.868L86.316,135.823C105.124,120.013 133.02,110.68 163.466,107.283L163.473,49.317C158.653,47.565 151.455,46.401 143.223,46.294ZM401.617,49.754C390.813,49.871 380.895,51.684 374.574,54.409L374.554,237.591C399.628,233.571 424.714,228.179 449.676,221.233L451.666,62.786C443.314,56.886 428.018,51.761 412.616,50.233C408.918,49.867 405.218,49.716 401.616,49.755L401.617,49.754ZM178.842,123.956C125.122,124.658 77.435,144.321 80.955,190.556C96.791,186.638 111.795,184.663 125.895,184.456C160.735,183.946 190.108,194.16 213.213,212.069C247.821,208.959 283.065,202.069 318.625,191.755C318.765,150.468 244.527,123.098 178.842,123.955L178.842,123.956ZM129.965,202.606C128.669,202.603 127.362,202.618 126.045,202.651C108.789,203.087 89.595,206.681 68.479,213.688C74.269,267.496 94.804,320.098 126.979,357.034C133.205,364.184 139.835,370.746 146.854,376.649C176.157,385.931 216.114,389.566 257.388,388.789C261.165,332.984 248.671,280.432 221.195,246.049C199.93,219.439 170.131,202.659 129.963,202.605L129.965,202.606ZM259.291,224.888C249.933,226.525 240.601,227.904 231.296,229.038C232.836,230.778 234.339,232.558 235.798,234.384C238.944,238.321 241.892,242.446 244.671,246.718C254.587,246.862 264.539,246.843 274.528,246.612L259.29,246.612L259.29,224.889L259.291,224.888ZM451.108,240.231C385.702,258.057 319.646,265.641 255.258,265.546C272.256,300.69 279.086,343.639 276.271,388.146C318.753,386.066 361.301,379.916 394.458,372.163C421.151,339.383 441.828,295.045 451.108,240.231ZM400.51,389.9C362.176,399.045 312.56,405.956 263.637,407.354C215.967,408.714 169.301,405.126 134.189,392.092L134.179,471.022C161.366,483.59 210.593,491.227 261.497,491.32C312.721,491.414 365.711,484.147 400.497,470.547L400.509,389.9L400.51,389.9Z" style="fill:white;fill-rule:nonzero;"/>
    </g>
</svg>
