<?xml version="1.0" encoding="UTF-8" standalone="no"?>
<!DOCTYPE svg PUBLIC "-//W3C//DTD SVG 1.1//EN" "http://www.w3.org/Graphics/SVG/1.1/DTD/svg11.dtd">
<svg width="100%" height="100%" viewBox="0 0 24 24" version="1.1" xmlns="http://www.w3.org/2000/svg" xmlns:xlink="http://www.w3.org/1999/xlink" xml:space="preserve" xmlns:serif="http://www.serif.com/" style="fill-rule:evenodd;clip-rule:evenodd;stroke-linejoin:round;stroke-miterlimit:2;">
    <g transform="matrix(1,0,0,1,5.78e-07,5.04e-06)">
        <g transform="matrix(0.0513626,0,0,0.05227,-0.79458,-1.87378)">
            <path id="Man" d="M467.838,35.848C414.63,39.366 366.554,43.939 328.698,86.028C338.567,115.591 354.866,151.912 375.311,181.262C395.815,210.698 420.069,231.852 443.921,234.559C479.186,201.502 497.62,121.96 467.838,35.848ZM189.8,46.02C184.186,46.217 178.797,47.443 173.813,49.658C146.527,61.784 137.078,101.025 152.882,136.586C163.488,160.431 183.367,177.93 204.502,182.029C206.894,239.536 185.074,225.912 133.968,255.635L149.856,287.325C185.422,273.594 201.7,267.622 219.126,243.008C251.712,336.928 217.252,400.244 195.438,490.086L229.149,495.002C252.847,437.755 284.263,372.647 291.587,313.58C340.524,364.714 369.085,428.221 406.237,482.723L442.057,467.973C396.247,387.249 376.424,339.602 291.466,205.783C318.285,205.589 341.292,199.191 362.149,190.361C355.113,180.256 348.584,169.479 342.62,158.475C314.397,170.558 283.592,175.472 252.48,159.33C262.618,140.966 262.573,115.42 252.362,92.375C239.766,64.032 214.299,45.162 189.8,46.02ZM15.47,87.309L18.757,121.399L71.357,229.169L92.925,218.643L40.542,111.318L15.47,87.308L15.47,87.309ZM112.536,226.875L65.78,249.697L68.917,268.193L125.188,240.729L112.536,226.875ZM114.854,263.576L93.286,274.104L109.954,308.254L131.522,297.727L114.854,263.577L114.854,263.576Z" style="fill:url(#_Linear1);fill-rule:nonzero;"/>
        </g>
        <g transform="matrix(0.0513626,0,0,0.05227,-0.79458,-1.87378)">
            <g transform="matrix(0.00993884,-1.85138e-17,3.03266e-16,-0.00970557,375.65,160.332)">
                <path d="M6555,9851C6389,9792 6225,9668 6111,9518C6024,9403 5948,9215 5916,9040C5889,8889 5879,8724 5870,8230C5860,7698 5855,7655 5799,7549C5673,7313 5432,7305 5161,7530C5125,7561 5077,7613 5054,7646C4990,7741 4981,7794 4970,8110C4955,8555 4955,8553 4929,8607C4858,8753 4722,8822 4501,8823C4366,8824 4351,8819 4269,8737C4134,8602 4099,8430 4163,8227C4177,8185 4220,8092 4260,8020C4418,7734 4447,7569 4360,7438C4278,7314 4052,7233 3943,7288C3844,7339 3762,7476 3670,7745C3565,8050 3485,8223 3387,8353C3285,8487 3161,8569 2990,8611C2873,8641 2695,8634 2565,8595C2212,8491 1940,8246 1885,7985C1846,7800 1886,7636 2001,7507C2084,7414 2208,7341 2510,7209C2900,7039 3093,6915 3213,6758C3344,6586 3400,6382 3353,6244C3311,6120 3135,6016 2900,5976C2618,5928 2436,5949 1826,6094C1352,6208 1311,6215 1130,6214C996,6213 962,6210 877,6187C608,6115 366,5951 197,5725C123,5626 34,5446 15,5354C-16,5206 4,4977 59,4855C99,4767 141,4708 229,4616C343,4498 459,4426 610,4378C674,4359 705,4355 820,4355C941,4356 963,4359 1035,4384C1139,4420 1226,4468 1445,4610C1661,4751 1743,4798 1855,4850C2109,4967 2319,4990 2463,4918C2519,4890 2588,4817 2616,4757C2645,4693 2656,4586 2642,4510C2615,4368 2550,4260 2333,3993C2070,3672 2000,3537 2000,3355C2000,3096 2213,2838 2468,2789C2596,2765 2723,2799 2787,2875C2841,2937 2890,3065 2944,3282C3004,3522 3041,3620 3112,3727C3233,3907 3455,4010 3657,3980C3907,3942 4146,3775 4308,3526C4467,3281 4584,2763 4584,2305C4583,1997 4550,1840 4405,1450C4260,1061 4227,906 4250,714C4276,493 4347,333 4475,204C4563,116 4628,74 4735,38C4835,5 5036,5 5160,39C5436,113 5608,253 5720,493C5799,662 5837,910 5811,1091C5777,1322 5673,1542 5372,2020C5048,2536 4982,2654 4926,2822C4874,2982 4856,3154 4881,3272C4934,3524 5239,3754 5630,3837C5760,3864 5992,3862 6085,3833C6178,3804 6260,3749 6342,3662C6421,3578 6450,3520 6548,3258C6652,2979 6708,2892 6818,2839C6881,2809 7009,2802 7104,2824C7190,2844 7294,2898 7350,2952C7468,3066 7470,3255 7356,3495C7261,3694 7171,3778 6685,4119C6542,4220 6412,4314 6397,4328L6369,4355L6392,4374C6431,4405 6721,4547 6794,4569C6851,4587 6888,4590 7019,4590C7213,4590 7254,4580 7427,4495C7579,4420 7722,4317 7826,4209C7941,4088 7977,4025 8118,3699C8321,3229 8402,3120 8638,3003L8754,2945L8915,2946C9049,2946 9089,2950 9160,2969C9444,3045 9638,3220 9758,3507L9795,3595L9795,3760C9794,3901 9791,3937 9772,4005C9732,4146 9686,4224 9585,4326C9505,4407 9483,4423 9390,4468C9237,4541 9186,4551 8795,4575C8389,4601 8196,4636 7978,4725C7696,4840 7493,4976 7270,5200C7036,5433 6967,5576 6969,5829C6970,5989 7020,6123 7108,6201C7197,6279 7310,6288 7600,6239C7881,6192 8032,6205 8155,6290C8293,6385 8335,6598 8248,6763C8211,6832 8177,6863 8090,6904C8026,6935 8023,6935 7870,6934C7738,6934 7677,6928 7460,6892C7138,6840 7043,6830 6881,6830C6609,6830 6458,6888 6273,7064C6146,7184 6115,7247 6116,7375C6116,7448 6121,7476 6142,7526C6224,7721 6430,7916 6792,8140C7179,8380 7330,8541 7391,8778C7430,8931 7425,9188 7380,9333C7327,9503 7130,9730 6965,9810C6847,9868 6657,9887 6555,9851Z" style="fill:rgb(255,0,0);fill-rule:nonzero;"/>
            </g>
        </g>
    </g>
    <defs>
        <linearGradient id="_Linear1" x1="0" y1="0" x2="1" y2="0" gradientUnits="userSpaceOnUse" gradientTransform="matrix(2.86118e-14,459.154,-467.266,2.81151e-14,243.317,35.848)"><stop offset="0" style="stop-color:white;stop-opacity:1"/><stop offset="0.61" style="stop-color:rgb(255,213,213);stop-opacity:1"/><stop offset="0.82" style="stop-color:rgb(255,111,111);stop-opacity:1"/><stop offset="0.99" style="stop-color:rgb(255,0,0);stop-opacity:1"/><stop offset="1" style="stop-color:white;stop-opacity:1"/></linearGradient>
    </defs>
</svg>
