<?xml version="1.0" encoding="UTF-8" standalone="no"?>
<!DOCTYPE svg PUBLIC "-//W3C//DTD SVG 1.1//EN" "http://www.w3.org/Graphics/SVG/1.1/DTD/svg11.dtd">
<svg width="100%" height="100%" viewBox="0 0 24 24" version="1.1" xmlns="http://www.w3.org/2000/svg" xmlns:xlink="http://www.w3.org/1999/xlink" xml:space="preserve" xmlns:serif="http://www.serif.com/" style="fill-rule:evenodd;clip-rule:evenodd;stroke-linejoin:round;stroke-miterlimit:2;">
    <g transform="matrix(0.0513626,0,0,0.05227,-0.79458,-1.87378)">
        <path d="M467.838,35.848C414.63,39.366 366.554,43.939 328.698,86.028C338.567,115.591 354.866,151.912 375.311,181.262C395.815,210.698 420.069,231.852 443.921,234.559C479.186,201.502 497.62,121.96 467.838,35.848ZM189.8,46.02C184.186,46.217 178.797,47.443 173.813,49.658C146.527,61.784 137.078,101.025 152.882,136.586C152.882,136.586 152.882,136.586 152.882,136.586C163.488,160.431 183.367,177.93 204.502,182.029C206.894,239.536 185.074,225.912 133.968,255.635L149.856,287.325C185.422,273.594 201.7,267.622 219.126,243.008C251.712,336.928 217.252,400.244 195.438,490.086L229.149,495.002C252.847,437.755 284.263,372.647 291.587,313.58C340.524,364.714 369.085,428.221 406.237,482.723L442.057,467.973C396.247,387.249 376.424,339.602 291.466,205.783C318.285,205.589 341.292,199.191 362.149,190.361C355.113,180.256 348.584,169.479 342.62,158.475C314.397,170.558 283.592,175.472 252.48,159.33C262.618,140.966 262.573,115.42 252.362,92.375C239.766,64.032 214.299,45.162 189.8,46.02ZM15.47,87.309L18.757,121.399L71.357,229.169L92.925,218.643L40.542,111.318L15.47,87.308L15.47,87.309ZM112.536,226.875L65.78,249.697L68.917,268.193L125.188,240.729L112.536,226.875ZM114.854,263.576L93.286,274.104L109.954,308.254L131.522,297.727L114.854,263.577L114.854,263.576Z" style="fill:white;fill-rule:nonzero;"/>
    </g>
</svg>
